<svg width="172" height="172" xmlns="http://www.w3.org/2000/svg"  version="1.1">
 <defs id="defs6">
  <clipPath id="clipPath16" clipPathUnits="userSpaceOnUse">
   <path id="path14" d="m-737.44208,2119.76665l1728.35,0l0,-1456.2l-1728.35,0l0,1456.2z"/>
  </clipPath>
 </defs>
 <g>
  <title>Layer 1</title>
  <g transform="matrix(1.33333, 0, 0, -1.33333, 0, 1941.6)"   id="g8">
   <g id="g10">
    <g clip-path="url(#clipPath16)" id="g12">
     <g id="g18">
      <path fill-rule="nonzero" fill="#000000" id="path20" d="m59.17011,1405.59723c-4.491,0 -8.132,-3.641 -8.132,-8.132c0,-4.491 3.641,-8.132 8.132,-8.132c4.491,0 8.132,3.641 8.132,8.132c0,4.491 -3.641,8.132 -8.132,8.132"/>
     </g>
     <g id="g22">
      <path fill-rule="nonzero" fill="#000000" id="path24" d="m59.17011,1436.92127c-4.491,0 -8.132,-3.641 -8.132,-8.132c0,-4.491 3.641,-8.132 8.132,-8.132c4.491,0 8.132,3.641 8.132,8.132c0,4.491 -3.641,8.132 -8.132,8.132"/>
     </g>
     <g id="g26">
      <path fill-rule="nonzero" fill="#000000" id="path28" d="m59.17011,1374.48377c-4.491,0 -8.132,-3.641 -8.132,-8.132c0,-4.491 3.641,-8.132 8.132,-8.132c4.491,0 8.132,3.641 8.132,8.132c0,4.491 -3.641,8.132 -8.132,8.132"/>
     </g>
     <g id="g30">
      <path fill-rule="nonzero" fill="#000000" id="path32" d="m25.09125,1377.89484c2.246,-3.89 7.219,-5.222 11.109,-2.977c3.889,2.246 5.222,7.22 2.976,11.109c-2.245,3.89 -7.219,5.222 -11.108,2.977c-3.89,-2.246 -5.223,-7.219 -2.977,-11.109"/>
     </g>
     <g id="g34">
      <path fill-rule="nonzero" fill="#000000" id="path36" d="m79.1637,1409.11365c2.246,-3.89 7.219,-5.222 11.109,-2.977c3.889,2.246 5.222,7.22 2.976,11.109c-2.245,3.89 -7.219,5.222 -11.108,2.977c-3.89,-2.246 -5.223,-7.219 -2.977,-11.109"/>
     </g>
     <g id="g38">
      <path fill-rule="nonzero" fill="#000000" id="path40" d="m25.09125,1417.24573c2.246,3.89 7.219,5.222 11.109,2.977c3.889,-2.246 5.222,-7.22 2.976,-11.109c-2.245,-3.89 -7.219,-5.222 -11.108,-2.977c-3.89,2.246 -5.223,7.219 -2.977,11.109"/>
     </g>
     <g id="g42">
      <path fill-rule="nonzero" fill="#000000" id="path44" d="m79.1637,1386.02704c2.246,3.89 7.219,5.222 11.109,2.977c3.889,-2.246 5.222,-7.22 2.976,-11.109c-2.245,-3.89 -7.219,-5.222 -11.108,-2.977c-3.89,2.246 -5.223,7.219 -2.977,11.109"/>
     </g>
     <g id="g46">
      <path fill-rule="nonzero" fill="#000000" id="path48" d="m91.8598,1360.85144l23.862,-14.691l-8.119,57.966c-3.326,24.022 -24.147,42.13 -48.433,42.13c-26.961,0 -48.896,-21.934 -48.896,-48.896c0,-26.962 21.935,-48.898 48.896,-48.898c11.033,0 21.445,3.587 30.112,10.371l2.578,2.018zm35.953,-33.185l-35.392,21.79c-9.779,-6.817 -21.206,-10.404 -33.251,-10.404c-32.15,0 -58.306,26.157 -58.306,58.308c0,32.15 26.156,58.306 58.306,58.306c28.959,0 53.787,-21.599 57.753,-50.242l10.89,-77.758z"/>
     </g>
    </g>
   </g>
  </g>
 </g>
</svg>